Coordinates
version=1
nRows=27
nColumns=12
inDegrees=yes

Units are S.I. units (second, meters, Newtons, ...)
Angles are in degrees

endheader
time	SC_y	SC_z	SC_x	AC_y	AC_z	AC_x	GH_y	GH_z	GH_yy	EL_x	PS_y
       0.0              -11.97          22.11          17.63          37.15           7.88         -3.008          144.4         -12.17          170.5          63.19          104.9
   0.02077              -11.98          22.11          17.63          37.16          7.878          -3.01          144.4         -12.16          170.5           63.2          105.0
   0.04155              -11.99          22.11          17.63          37.16          7.876         -3.011          144.3         -12.14          170.5          63.21          105.0
   0.06232              -11.99          22.11          17.63          37.16          7.874         -3.013          144.3         -12.13          170.5          63.22          105.0
   0.08309               -12.0          22.11          17.64          37.17          7.872         -3.014          144.2         -12.11          170.5          63.23          105.0
    0.1039               -12.0          22.11          17.64          37.17          7.869         -3.016          144.2         -12.09          170.5          63.25          105.0
    0.1246              -12.01          22.11          17.64          37.17          7.867         -3.018          144.1         -12.07          170.5          63.26          105.0
    0.1454              -12.02          22.11          17.64          37.18          7.864          -3.02          144.0         -12.05          170.5          63.27          105.0
    0.1662              -12.03          22.11          17.64          37.18          7.861         -3.023          144.0         -12.03          170.5          63.29          105.0
     0.187              -12.04          22.11          17.64          37.19          7.858         -3.025          143.9         -12.01          170.5           63.3          105.0
    0.2077              -12.04          22.11          17.65          37.19          7.855         -3.028          143.8         -11.98          170.5          63.32          105.0
    0.2285              -12.05          22.11          17.65           37.2          7.852          -3.03          143.7         -11.95          170.5          63.34          105.0
    0.2493              -12.07          22.11          17.65           37.2          7.848         -3.033          143.6         -11.92          170.5          63.36          105.0
    0.2701              -12.08          22.11          17.65          37.21          7.844         -3.037          143.5         -11.89          170.4          63.38          105.0
    0.2908              -12.09          22.11          17.66          37.22          7.839          -3.04          143.4         -11.86          170.4          63.41          105.1
    0.3116               -12.1          22.11          17.66          37.23          7.834         -3.044          143.3         -11.82          170.4          63.43          105.1
    0.3324              -12.12          22.11          17.66          37.23          7.829         -3.048          143.2         -11.78          170.4          63.46          105.1
    0.3531              -12.13          22.11          17.67          37.24          7.823         -3.053          143.0         -11.74          170.4          63.49          105.1
    0.3739              -12.15          22.11          17.67          37.25          7.817         -3.057          142.9         -11.69          170.4          63.52          105.1
    0.3947              -12.17          22.11          17.67          37.27           7.81         -3.063          142.7         -11.64          170.4          63.56          105.1
    0.4155              -12.19          22.11          17.68          37.28          7.803         -3.069          142.5         -11.58          170.3           63.6          105.2
    0.4362              -12.22          22.11          17.68          37.29          7.794         -3.075          142.3         -11.51          170.3          63.64          105.2
     0.457              -12.24          22.11          17.69          37.31          7.785         -3.082          142.1         -11.44          170.3          63.69          105.2
    0.4778              -12.27          22.11           17.7          37.32          7.775          -3.09          141.8         -11.37          170.3          63.74          105.2
    0.4986               -12.3          22.11           17.7          37.34          7.764         -3.099          141.5         -11.28          170.2           63.8          105.3
    0.5193              -12.34          22.12          17.71          37.36          7.751         -3.109          141.2         -11.18          170.2          63.87          105.3
    0.5401              -12.38          22.12          17.72          37.38          7.737          -3.12          140.9         -11.07          170.2          63.94          105.3
